<?xml version="1.0" encoding="utf-8"?>
<!-- Generator: Adobe Illustrator 27.5.0, SVG Export Plug-In . SVG Version: 6.00 Build 0)  -->
<svg version="1.1" xmlns="http://www.w3.org/2000/svg" xmlns:xlink="http://www.w3.org/1999/xlink" x="0px" y="0px"
	 viewBox="0 0 500 500" style="enable-background:new 0 0 500 500;" xml:space="preserve">
<g id="BACKGROUND">
	<rect style="fill:#FFFFFF;" width="500" height="500"/>
	<g style="opacity:0.2;">
		<g>
			
				<rect x="308.918" y="314.757" transform="matrix(-1 -1.224647e-16 1.224647e-16 -1 647.5319 642.4274)" style="fill:#55A3F3;" width="29.695" height="12.914"/>
			
				<rect x="276.903" y="314.757" transform="matrix(-1 -1.224647e-16 1.224647e-16 -1 583.5015 642.4274)" style="fill:#55A3F3;" width="29.695" height="12.914"/>
			
				<rect x="293.114" y="330.027" transform="matrix(-1 -1.224647e-16 1.224647e-16 -1 615.9227 672.9681)" style="fill:#55A3F3;" width="29.695" height="12.914"/>
			
				<rect x="262.055" y="300.564" transform="matrix(-1 -1.224647e-16 1.224647e-16 -1 553.8061 614.0416)" style="fill:#55A3F3;" width="29.695" height="12.914"/>
		</g>
		<g>
			
				<rect x="469.528" y="279.826" transform="matrix(-1 -1.224647e-16 1.224647e-16 -1 968.7519 572.567)" style="fill:#55A3F3;" width="29.695" height="12.914"/>
			
				<rect x="454.681" y="265.633" transform="matrix(-1 -1.224647e-16 1.224647e-16 -1 939.0565 544.181)" style="fill:#55A3F3;" width="29.695" height="12.914"/>
		</g>
		<g>
			
				<rect x="30.923" y="299.696" transform="matrix(-1 -1.224647e-16 1.224647e-16 -1 91.5411 612.3056)" style="fill:#55A3F3;" width="29.695" height="12.914"/>
			
				<rect x="16.075" y="285.503" transform="matrix(-1 -1.224647e-16 1.224647e-16 -1 61.8457 583.9196)" style="fill:#55A3F3;" width="29.695" height="12.914"/>
		</g>
		<g>
			
				<rect x="255.611" y="431.201" transform="matrix(-1 -1.224647e-16 1.224647e-16 -1 540.9183 875.3172)" style="fill:#55A3F3;" width="29.695" height="12.914"/>
			
				<rect x="240.764" y="417.009" transform="matrix(-1 -1.224647e-16 1.224647e-16 -1 511.2229 846.9314)" style="fill:#55A3F3;" width="29.695" height="12.914"/>
		</g>
		<g>
			
				<rect x="217.696" y="82.158" transform="matrix(-1 -1.224647e-16 1.224647e-16 -1 465.0869 177.2294)" style="fill:#55A3F3;" width="29.695" height="12.914"/>
			
				<rect x="202.848" y="67.965" transform="matrix(-1 -1.224647e-16 1.224647e-16 -1 435.3915 148.8436)" style="fill:#55A3F3;" width="29.695" height="12.914"/>
		</g>
		<g>
			
				<rect x="150.25" y="14.193" transform="matrix(-1 -1.224647e-16 1.224647e-16 -1 330.1951 41.3002)" style="fill:#55A3F3;" width="29.695" height="12.914"/>
			
				<rect x="135.402" transform="matrix(-1 -1.224647e-16 1.224647e-16 -1 300.4997 12.9144)" style="fill:#55A3F3;" width="29.695" height="12.914"/>
		</g>
		<g>
			<rect x="154.506" y="273.248" style="fill:#55A3F3;" width="29.695" height="12.914"/>
			<rect x="186.521" y="273.248" style="fill:#55A3F3;" width="29.695" height="12.914"/>
			<rect x="170.311" y="288.518" style="fill:#55A3F3;" width="29.695" height="12.914"/>
			<rect x="201.369" y="259.055" style="fill:#55A3F3;" width="29.695" height="12.914"/>
		</g>
		<g>
			
				<rect x="338.404" y="368.394" transform="matrix(-1 -1.224647e-16 1.224647e-16 -1 706.5034 749.7018)" style="fill:#55A3F3;" width="29.695" height="12.914"/>
			
				<rect x="323.556" y="354.201" transform="matrix(-1 -1.224647e-16 1.224647e-16 -1 676.8079 721.316)" style="fill:#55A3F3;" width="29.695" height="12.914"/>
		</g>
		<g>
			<rect y="202.995" style="fill:#55A3F3;" width="29.695" height="12.914"/>
			<rect x="32.015" y="202.995" style="fill:#55A3F3;" width="29.695" height="12.914"/>
			<rect x="15.805" y="218.266" style="fill:#55A3F3;" width="29.695" height="12.914"/>
			<rect x="46.863" y="188.803" style="fill:#55A3F3;" width="29.695" height="12.914"/>
		</g>
		<g>
			
				<rect x="56.461" y="35.17" transform="matrix(-1 -1.224647e-16 1.224647e-16 -1 142.6181 83.2552)" style="fill:#55A3F3;" width="29.695" height="12.914"/>
			
				<rect x="24.446" y="35.17" transform="matrix(-1 -1.224647e-16 1.224647e-16 -1 78.5876 83.2552)" style="fill:#55A3F3;" width="29.695" height="12.914"/>
			
				<rect x="40.657" y="50.441" transform="matrix(-1 -1.224647e-16 1.224647e-16 -1 111.0089 113.796)" style="fill:#55A3F3;" width="29.695" height="12.914"/>
			
				<rect x="9.599" y="20.978" transform="matrix(-1 -1.224647e-16 1.224647e-16 -1 48.8923 54.8694)" style="fill:#55A3F3;" width="29.695" height="12.914"/>
		</g>
	</g>
	<g>
		<defs>
			<rect id="SVGID_1_" x="246.416" width="253.584" height="307.021"/>
		</defs>
		<clipPath id="SVGID_00000060019745908666862900000003599867963779155384_">
			<use xlink:href="#SVGID_1_"  style="overflow:visible;"/>
		</clipPath>
		<g style="clip-path:url(#SVGID_00000060019745908666862900000003599867963779155384_);">
			<rect x="260.866" style="fill:#9DDCF9;" width="339.527" height="254.746"/>
			<rect x="271.444" style="fill:#FFFFFF;" width="318.371" height="246.367"/>
			<g>
				<defs>
					<rect id="SVGID_00000057110208795509796510000010925248268555859358_" x="271.444" width="318.371" height="246.367"/>
				</defs>
				<clipPath id="SVGID_00000050658142175106740400000005893352923504593315_">
					<use xlink:href="#SVGID_00000057110208795509796510000010925248268555859358_"  style="overflow:visible;"/>
				</clipPath>
				<g style="clip-path:url(#SVGID_00000050658142175106740400000005893352923504593315_);">
					<polygon style="fill:#D8F1FD;" points="530.906,-4.795 271.444,158.234 271.444,112.279 530.906,-50.75 					"/>
					<polygon style="fill:#D8F1FD;" points="635.051,88.072 271.444,316.219 271.444,293.836 635.051,65.688 					"/>
					<polygon style="fill:#D8F1FD;" points="635.051,16.959 271.444,245.425 271.444,181.024 635.051,-47.442 					"/>
				</g>
			</g>
		</g>
		
			<rect x="433.088" style="clip-path:url(#SVGID_00000060019745908666862900000003599867963779155384_);fill:#9DDCF9;" width="8.779" height="247.089"/>
	</g>
	<g>
		<rect y="459.758" style="fill:#0A2A6B;" width="500" height="40.242"/>
		<rect y="459.758" style="fill:#2C54AC;" width="500" height="6.261"/>
	</g>
</g>
<g id="OBJECTS">
	<g>
		<g>
			<path style="fill:#FF8775;" d="M325.726,234.727c0,0,1.755-7.077,2.326-12.023c0.667-5.789,1.677-11.539,3.021-17.209
				c0.817-3.447,1.821-6.988,4.114-9.688l41.074,6.653l12.432,69.929l8.333,24L361.715,342.6l-8.534-43.936
				c0.882-0.614,1.67-1.33,2.256-2.235c1.758-2.716,1.503-7.752,0.934-10.937c-4.795,0.091-9.617,0.75-14.365,0.071
				c-3.638-0.52-7.468-1.379-10.078-3.966c-1.309-1.298-2.216-2.948-2.927-4.649c-0.989-2.365-1.635-4.862-2.059-7.421
				c3.825-2.116,7.018-5.375,9.103-9.229c-2.856,2.241-6.144,3.92-9.623,4.954c-0.255-3.115-0.282-6.263-0.279-9.327
				c-3.592-1.462-10.921-4.406-10.921-4.406s1.242-6.073,4.222-10.715C321.28,237.944,325.726,234.727,325.726,234.727z"/>
			<path style="fill:#0A2A6B;" d="M340.012,236.831c-0.03,1.728-1.455,3.105-3.183,3.075c-1.728-0.03-3.105-1.455-3.075-3.183
				c0.03-1.728,1.455-3.105,3.183-3.075C338.665,233.678,340.042,235.103,340.012,236.831z"/>
			<g>
				<path style="fill:#0A2A6B;" d="M346.815,234.788c-0.887-1.415-1.931-2.687-3.161-3.718c-1.208-1.046-2.551-1.894-3.962-2.507
					c-1.432-0.618-2.97-0.708-4.401-1.166c-1.467-0.435-2.961-0.782-4.725-1.325l-0.052-0.299c1.531-1.115,3.427-1.465,5.261-1.367
					c1.87,0.076,3.547,1.058,5.063,2.021c1.537,0.968,2.866,2.206,3.928,3.615c1.039,1.423,1.867,2.978,2.327,4.625L346.815,234.788
					z"/>
			</g>
			<path style="fill:#0A2A6B;" d="M388.693,272.388c0,0-13.165-5.958-21.77-26.821c-8.606-20.863-4.433-35.467-4.433-35.467
				s-10.53,7.041-22.477,4.433c-11.947-2.608-14.725-12.749-14.725-12.749c-3.207,4.741-2.634,8.242,0.478,13.045
				c-4.617-2.187-9.434-5.999-10.729-10.94c-0.625-2.382-0.62-4.899-0.228-7.33c1.029-6.394,4.817-12.295,10.202-15.892
				c4.44-2.966,9.756-4.344,15.041-5.104c4.959-0.713,9.975-0.926,14.98-1.138c9.042-0.383,9.621,0.195,18.663-0.187
				c5.38-0.228,10.874-0.442,16.041,1.07c5.168,1.512,10.045,5.087,11.664,10.222c4.571,0.298,11.975,7.101,14.071,11.174
				c5.481,10.65,6.093,23.494,0.513,36.049C405.604,256.11,388.693,272.388,388.693,272.388z"/>
			<path style="fill:#FF8775;" d="M368.589,233.595c1.872-2.443,5.367-4.097,8.411-3.068c2.231,0.754,3.709,2.727,4.653,4.739
				c2.918,6.221,1.69,14.123-3.607,18.819c-1.422,1.26-3.184,2.31-5.148,2.464c-3.496,0.275-6.609-2.435-7.724-5.505
				c-1.013-2.79-1.11-6.368-0.051-9.155C366.172,239.129,366.725,236.027,368.589,233.595z"/>
			<g>
				<path style="fill:#F07167;" d="M370.424,253.686c1.131-0.868,2.245-2.036,2.47-3.662c0.036-0.259,0.045-0.541-0.058-0.78
					c-0.096-0.221-0.273-0.373-0.447-0.508c-1.179-0.919-2.51-1.536-3.874-1.796c0.134-2.653,0.284-5.385,1.251-7.724
					c0.967-2.338,2.968-4.207,5.153-3.89c1.709,0.249,3.267,1.911,3.704,3.951c0,0,1.461,3.967-0.543,8.737
					C376.075,252.785,370.424,253.686,370.424,253.686z"/>
				<g>
					<path style="fill:#0A2A6B;" d="M378.622,239.278c-0.579-1.606-1.821-2.951-3.274-3.345c-0.714-0.178-1.452-0.071-2.1,0.248
						c-0.647,0.332-1.219,0.846-1.692,1.449c-0.935,1.222-1.461,2.745-1.746,4.359c-0.327,1.604-0.409,3.287-0.562,4.989
						l-0.596-0.759c0.917,0.201,1.793,0.543,2.583,1.015c0.397,0.232,0.775,0.492,1.133,0.773c0.186,0.145,0.34,0.271,0.536,0.461
						c0.193,0.182,0.411,0.499,0.461,0.823c0.083,0.633-0.083,1.045-0.231,1.498c-0.173,0.44-0.41,0.844-0.686,1.205
						c-0.557,0.725-1.277,1.258-2.025,1.693c0.609-0.616,1.167-1.275,1.539-2.005c0.188-0.362,0.326-0.741,0.403-1.125
						c0.077-0.367,0.129-0.824,0.042-1.042c-0.04-0.101-0.09-0.148-0.219-0.248l-0.487-0.324c-0.342-0.218-0.697-0.413-1.062-0.579
						c-0.731-0.33-1.491-0.577-2.264-0.7l-0.605-0.097l0.009-0.662c0.022-1.713,0.116-3.459,0.429-5.221
						c0.347-1.729,0.95-3.563,2.223-4.988c0.62-0.708,1.389-1.329,2.318-1.678c0.92-0.354,2-0.395,2.91-0.007
						C377.473,235.78,378.473,237.576,378.622,239.278z"/>
				</g>
			</g>
			<g style="opacity:0.46;">
				<g>
					<path style="fill:#9DDCF9;" d="M392.795,203.943c-2.339,4.196-3.96,8.756-4.761,13.446c-0.797,4.686-0.846,9.507,0.044,14.167
						c0.811,4.674,2.55,9.171,4.949,13.275c1.194,2.057,2.578,4.009,4.124,5.827c1.522,1.842,3.237,3.522,5.065,5.082
						c-1.968-1.382-3.768-3.005-5.432-4.757c-1.64-1.775-3.117-3.706-4.414-5.753c-2.585-4.104-4.366-8.717-5.274-13.495
						c-0.83-4.792-0.791-9.736,0.186-14.487c0.494-2.374,1.195-4.701,2.106-6.939C390.328,208.083,391.44,205.93,392.795,203.943z"
						/>
				</g>
				<g>
					<path style="fill:#9DDCF9;" d="M402.832,203.78c-0.919,3.445-1.643,6.93-1.992,10.449c-0.337,3.516-0.355,7.061,0.13,10.544
						c0.462,3.482,1.439,6.894,2.882,10.103c0.721,1.606,1.581,3.152,2.575,4.613c0.967,1.481,2.1,2.853,3.326,4.148
						c-1.382-1.131-2.606-2.455-3.724-3.861c-1.092-1.428-2.047-2.963-2.87-4.567c-1.646-3.213-2.682-6.727-3.179-10.303
						c-0.474-3.58-0.426-7.218,0.1-10.771C400.594,210.581,401.52,207.1,402.832,203.78z"/>
				</g>
				<g>
					<path style="fill:#9DDCF9;" d="M330.392,178.057c2.714,5.519,6.633,10.386,11.364,14.223c4.728,3.832,10.253,6.706,16.162,8.12
						c5.89,1.491,12.118,1.516,18.084,0.317c2.988-0.593,5.914-1.517,8.71-2.752c2.811-1.205,5.472-2.757,7.961-4.561
						c-2.352,1.985-4.985,3.638-7.756,5.007c-2.787,1.34-5.731,2.362-8.754,3.059c-6.049,1.38-12.429,1.354-18.484-0.099
						c-6.036-1.529-11.7-4.467-16.413-8.501c-2.353-2.021-4.485-4.293-6.33-6.775C333.117,183.594,331.553,180.907,330.392,178.057z
						"/>
				</g>
				<g>
					<path style="fill:#9DDCF9;" d="M345.915,175.096c2.577,2.674,5.502,4.975,8.697,6.784c3.199,1.797,6.641,3.153,10.218,3.918
						c3.572,0.787,7.266,0.981,10.922,0.673c1.829-0.153,3.649-0.455,5.439-0.895c1.8-0.409,3.557-0.994,5.289-1.667
						c-1.639,0.88-3.381,1.565-5.159,2.14c-1.789,0.543-3.626,0.937-5.485,1.187c-3.721,0.498-7.536,0.328-11.218-0.461
						c-3.677-0.811-7.219-2.239-10.397-4.236c-1.588-0.999-3.097-2.119-4.498-3.355
						C348.343,177.922,347.042,176.576,345.915,175.096z"/>
				</g>
			</g>
			<path style="fill:#9DDCF9;" d="M400.126,293.185c0,0,45.35,13.656,60.77,29.076s20.267,69.172,20.267,69.172H456.49l2.203,68.324
				H289.948c0,0,4.406-111.942,18.505-133.09c14.099-21.148,48.268-34.696,48.268-34.696l11.793,13.609l24.616-20.415
				L400.126,293.185z"/>
			<g>
				<polygon style="fill:#FF4648;" points="360.488,313.938 364.37,322.161 356.124,418.055 385.556,418.055 371.86,322.161 
					375.914,313.938 368.514,305.581 				"/>
				<g>
					<path style="fill:#0A2A6B;" d="M364.349,321.752c1.322,0.041,2.523,0.151,3.756,0.207c1.232,0.077,2.436,0.1,3.755,0.201
						c-1.155,0.678-2.51,0.853-3.81,0.797C366.751,322.869,365.426,322.546,364.349,321.752z"/>
				</g>
			</g>
			<g>
				<path style="fill:#0A2A6B;" d="M346.953,296.461c1.457,3.899,2.794,7.836,4.193,11.753c1.356,3.931,2.702,7.865,4.01,11.81
					l-1.293-0.303c2.297-2.496,4.622-4.964,6.945-7.436c2.314-2.479,4.658-4.93,6.999-7.384l0.729-0.764l0.712,0.794
					c2.464,2.748,4.91,5.513,7.34,8.291c2.442,2.768,4.872,5.546,7.281,8.343l-1.448,0.142c2.868-4.802,5.779-9.579,8.723-14.337
					c1.464-2.383,2.955-4.751,4.457-7.112c1.496-2.365,2.987-4.733,4.525-7.073c-1.283,2.489-2.614,4.951-3.94,7.415
					c-1.319,2.468-2.65,4.93-4.007,7.375c-2.7,4.901-5.432,9.782-8.207,14.638l-0.609,1.065l-0.84-0.923
					c-2.485-2.729-4.949-5.478-7.401-8.237c-2.463-2.749-4.912-5.511-7.342-8.289l1.441,0.029c-2.358,2.438-4.711,4.879-7.095,7.291
					c-2.376,2.42-4.748,4.844-7.149,7.239l-0.929,0.926l-0.364-1.23c-1.181-3.986-2.324-7.983-3.457-11.984
					C349.137,304.488,347.986,300.494,346.953,296.461z"/>
			</g>
			<polygon style="fill:#FF8775;" points="437.049,391.434 441.363,433.91 385.556,433.91 388.069,459.758 472.826,459.758 
				474.431,391.434 			"/>
			<polygon style="fill:#0A2A6B;" points="481.163,391.434 474.431,391.434 474.281,397.79 			"/>
			<g>
				<path style="fill:#0A2A6B;" d="M436.857,391.438c-0.657-5.865-1.187-11.735-1.59-17.612c-0.411-5.874-0.815-11.751-0.866-17.685
					c-0.005-5.921,0.382-11.919,1.802-17.73c1.377-5.795,3.809-11.418,7.513-16.036c-3.055,5.061-4.89,10.669-5.987,16.366
					c-1.073,5.714-1.368,11.549-1.329,17.393c0.01,5.845,0.328,11.729,0.42,17.621C436.96,379.643,436.972,385.538,436.857,391.438z
					"/>
			</g>
			<g>
				<path style="fill:#0A2A6B;" d="M308.455,339.339c3.858,9.586,7.478,19.267,10.799,29.057c3.318,9.792,6.493,19.633,8.788,29.794
					c0.234,1.291,0.56,2.542,0.711,3.866l0.261,1.971c0.098,0.656,0.074,1.32,0.117,1.98c0.086,1.327,0.041,2.631,0.014,3.938
					c-0.004,1.311-0.115,2.604-0.193,3.904c-0.389,5.185-0.999,10.329-1.761,15.448c-1.504,10.238-3.479,20.39-5.786,30.462
					c0.751-5.112,1.548-10.212,2.228-15.329c0.72-5.109,1.408-10.222,2.011-15.339c0.575-5.119,1.145-10.239,1.418-15.359
					c0.046-1.278,0.162-2.56,0.153-3.832c0.019-1.274,0.055-2.551-0.035-3.803c-0.063-2.521-0.579-4.983-1.092-7.493
					c-1.073-5-2.45-9.966-3.866-14.916c-1.421-4.952-2.927-9.882-4.445-14.812l-4.64-14.768L308.455,339.339z"/>
			</g>
			<rect x="389.491" y="339.339" style="fill:#0A2A6B;" width="35.923" height="7.519"/>
		</g>
		<g>
			
				<rect x="288.164" y="452.839" transform="matrix(-1 -1.224647e-16 1.224647e-16 -1 739.7336 912.5971)" style="fill:#55A3F3;" width="163.406" height="6.919"/>
			<path style="fill:#55A3F3;" d="M261.87,362.301h96.064c3.397,0,6.47,2.577,7.824,6.561l30.897,90.896H288.164l-30.403-89.441
				C256.474,366.532,258.643,362.301,261.87,362.301z"/>
			<path style="fill:#0A2A6B;" d="M255.833,362.301h100.045c2.67,0,5.085,2.026,6.15,5.157l31.375,92.3H284.912l-31.513-92.708
				C252.636,364.808,253.921,362.301,255.833,362.301z"/>
			<path style="fill:#55A3F3;" d="M299.904,411.029c1.241,7.388,8.235,13.376,15.623,13.376c7.388,0,12.371-5.989,11.13-13.376
				c-1.241-7.388-8.236-13.377-15.623-13.377C303.647,397.653,298.664,403.642,299.904,411.029z"/>
		</g>
	</g>
	<g>
		<g>
			<path style="fill:#FF8775;" d="M228.563,290.549c-7.181,29.189-13.282,57.894-18.456,87.505
				c-3.257-11.094-6.515-22.189-9.772-33.284c-1.391-4.737-2.807-9.532-5.338-13.771c-3.655-6.122-9.396-10.69-15.246-14.767
				c-0.798-0.556-1.605-1.1-2.413-1.644c4.878,9.902,10.744,24.203,12.138,37.947c2.484,24.48-10.637,45.594-10.637,45.594
				s29.671,45.147,40.794,28.911c11.123-16.236,24.902-133.654,24.902-133.654C239.231,292.002,233.958,291.51,228.563,290.549z"/>
			<path style="fill:#FF8775;" d="M228.563,290.549c0,0-0.587-17.497,0.92-20.034c1.507-2.537,6.136-7.585,6.136-7.585
				s4.441-35.086,7.927-35.646c3.486-0.56,0.046,28.362,0.046,28.362s18.305,0.886,19.856,9.005
				c2.795,14.628-11.738,22.525-11.738,22.525l-7.761,11.046L228.563,290.549z"/>
		</g>
		<path style="fill:#FF8775;" d="M176.645,237.406c-1.565-4.727-1.897-9.756-2.467-14.702c-0.667-5.789-1.676-11.539-3.021-17.209
			c-0.817-3.447-1.821-6.988-4.114-9.688l-41.074,6.653l-37.485,73.048c11.429,14.814,52.031,67.092,52.031,67.092l8.534-43.936
			c-0.882-0.614-1.67-1.33-2.256-2.235c-1.758-2.716-1.503-7.752-0.933-10.937c4.795,0.091,9.617,0.75,14.365,0.071
			c3.638-0.52,7.468-1.379,10.078-3.966c1.309-1.298,2.216-2.948,2.927-4.649c0.989-2.365,1.635-4.862,2.059-7.421
			c-3.825-2.116-7.018-5.375-9.103-9.229c2.856,2.241,6.144,3.92,9.623,4.954c0.255-3.115,0.282-6.263,0.279-9.327
			c3.592-1.462,7.249-4.15,9.649-7.196C181.221,246.634,178.21,242.133,176.645,237.406z"/>
		<path style="fill:#2C54AC;" d="M189.476,352.534c-1.394-13.743-7.26-28.044-12.138-37.947c-7.8-5.253-16.003-9.906-24.521-13.89
			c-1.284-0.601-2.608-1.226-3.767-2.033l-8.534,43.936c0,0-40.602-52.279-52.031-67.092l-31.698,61.771l33.705,122.48h88.348
			v-61.63C178.839,398.128,191.959,377.014,189.476,352.534z"/>
		<path style="fill:#FF8775;" d="M56.786,337.278c0,0-8.87,6.031-15.61,45.413c-6.741,39.381-7.451,77.067-7.451,77.067h70.211
			l4.648-21.366l-46.832-4.612c0,0,15.965-32.995,14.901-58.185C75.589,350.405,56.786,337.278,56.786,337.278z"/>
		<path style="fill:#0A2A6B;" d="M44.542,366.185c4.387-14.142,14.54-31.667,25.761-41.327
			c11.221-9.661,23.562-18.109,33.622-28.973c7.15-7.721,13.021-16.531,18.508-25.511c9.438-15.447,18.371-31.609,18.994-49.7
			c11.348,0.9,23.077-3.803,30.3-12.603c0.431,1.883,0.989,3.161,1.42,5.045c1.5-1.292,2.382-3.185,2.795-5.121
			c0.414-1.936,0.399-3.935,0.37-5.914c1.473,3.951,2.504,7.962,2.72,12.172c3.677-5.87,2.576-13.874-1.356-19.576
			c-3.932-5.702-10.211-9.389-16.704-11.801c-7.188-2.67-12.841-4.118-26.515-4.066c-12.892,0.048-31.587,5.686-42.781,18.896
			c-8.194,9.669-12.194,22.093-16.394,34.051c-9.823,27.967-21.713,55.155-33.487,82.358c-3.073,7.101-6.16,14.267-7.715,21.847
			c-1.555,7.58-1.488,15.699,1.61,22.79c-1.027-9.019,2.177-18.431,8.494-24.95C38.785,342.27,40.663,356.921,44.542,366.185z"/>
		<path style="fill:#0A2A6B;" d="M162.217,236.831c0.03,1.728,1.455,3.105,3.183,3.075c1.728-0.03,3.105-1.455,3.075-3.183
			c-0.03-1.728-1.455-3.105-3.183-3.075C163.565,233.678,162.188,235.103,162.217,236.831z"/>
		<g>
			<path style="fill:#0A2A6B;" d="M155.138,234.666c0.46-1.647,1.287-3.201,2.327-4.625c1.062-1.408,2.391-2.647,3.928-3.615
				c1.516-0.964,3.193-1.946,5.063-2.021c1.834-0.099,3.73,0.252,5.261,1.367l-0.052,0.299c-1.765,0.544-3.259,0.89-4.725,1.325
				c-1.43,0.458-2.969,0.549-4.401,1.166c-1.41,0.613-2.753,1.461-3.962,2.507c-1.231,1.032-2.275,2.303-3.161,3.718
				L155.138,234.666z"/>
		</g>
		<path style="fill:#FF8775;" d="M133.936,234.173c-1.872-2.443-5.367-4.097-8.411-3.068c-2.231,0.754-3.709,2.727-4.653,4.739
			c-2.918,6.221-1.69,14.123,3.607,18.819c1.422,1.26,3.184,2.31,5.148,2.464c3.496,0.275,6.609-2.435,7.724-5.505
			c1.013-2.79,1.11-6.368,0.051-9.155C136.353,239.707,135.799,236.605,133.936,234.173z"/>
		<g>
			<path style="fill:#F07167;" d="M132.101,254.264c-1.131-0.868-2.245-2.036-2.47-3.662c-0.036-0.259-0.045-0.541,0.058-0.78
				c0.096-0.221,0.273-0.373,0.447-0.508c1.179-0.919,2.51-1.536,3.874-1.796c-0.134-2.653-0.284-5.385-1.251-7.724
				c-0.967-2.338-2.968-4.207-5.153-3.89c-1.709,0.249-3.267,1.911-3.704,3.951c0,0-1.462,3.967,0.543,8.737
				C126.45,253.363,132.101,254.264,132.101,254.264z"/>
			<g>
				<path style="fill:#0A2A6B;" d="M123.903,239.856c0.148-1.702,1.149-3.497,2.962-4.269c0.91-0.388,1.99-0.347,2.91,0.007
					c0.929,0.35,1.698,0.97,2.318,1.678c1.272,1.425,1.875,3.259,2.222,4.988c0.313,1.762,0.407,3.508,0.429,5.221l0.009,0.662
					l-0.605,0.097c-0.773,0.124-1.533,0.37-2.264,0.7c-0.365,0.167-0.72,0.362-1.062,0.579l-0.486,0.324
					c-0.128,0.1-0.178,0.147-0.219,0.248c-0.086,0.218-0.034,0.675,0.042,1.042c0.077,0.384,0.215,0.763,0.403,1.125
					c0.372,0.729,0.93,1.389,1.539,2.005c-0.747-0.435-1.468-0.967-2.024-1.693c-0.277-0.361-0.513-0.765-0.686-1.205
					c-0.148-0.453-0.314-0.865-0.231-1.498c0.049-0.324,0.267-0.641,0.461-0.823c0.196-0.19,0.351-0.316,0.536-0.461
					c0.358-0.281,0.736-0.541,1.133-0.773c0.79-0.473,1.667-0.814,2.583-1.015l-0.596,0.759c-0.153-1.702-0.235-3.385-0.562-4.989
					c-0.285-1.614-0.811-3.136-1.746-4.359c-0.473-0.603-1.045-1.117-1.692-1.449c-0.648-0.319-1.385-0.426-2.1-0.248
					C125.724,236.904,124.482,238.25,123.903,239.856z"/>
			</g>
		</g>
		<polygon style="fill:#0A2A6B;" points="145.86,285.492 136.173,284.805 145.439,289.806 		"/>
		<path style="fill:none;stroke:#0A2A6B;stroke-miterlimit:10;" d="M97.39,294.368c0.988,0.988,46.76,60.261,46.76,60.261
			l8.667-53.932"/>
		<g>
			<path style="fill:#0A2A6B;" d="M39.117,440.69c1.703-1.591,3.655-2.918,5.728-4.017c2.069-1.111,4.288-1.94,6.562-2.541
				c2.28-0.578,4.622-0.927,6.971-0.96l1.759,0.022l1.752,0.114l1.736,0.247c0.574,0.108,1.145,0.229,1.711,0.357
				c-0.583-0.022-1.162-0.051-1.738-0.093l-1.733-0.021l-1.726,0.028l-1.719,0.115c-2.284,0.211-4.549,0.576-6.761,1.159
				c-2.218,0.561-4.376,1.34-6.476,2.262C43.083,438.295,41.071,439.427,39.117,440.69z"/>
		</g>
		<g style="opacity:0.38;">
			<g>
				<path style="fill:#9DDCF9;" d="M172.25,189.142c-1.361,3.613-3.96,6.659-6.936,9.1c-3.011,2.436-6.431,4.303-9.923,5.925
					c-7.012,3.218-14.566,5.276-22.261,6.031c-7.693,0.689-15.543,0.044-22.948-2.171c-3.707-1.085-7.288-2.57-10.701-4.358
					c-3.394-1.824-6.599-3.994-9.516-6.488c6.091,4.673,13.07,8.105,20.428,10.106c7.35,2.034,15.065,2.671,22.644,1.916
					c7.594-0.663,15.04-2.703,22.041-5.735c3.497-1.522,6.907-3.289,9.934-5.609C168.048,195.575,170.681,192.662,172.25,189.142z"
					/>
			</g>
			<g>
				<path style="fill:#9DDCF9;" d="M161.403,184.253l-3.224,2.081l-3.367,1.856l-3.498,1.605l-3.595,1.385
					c-4.856,1.694-9.94,2.712-15.064,3.174c-5.131,0.382-10.313,0.204-15.381-0.672l-3.773-0.781l-3.714-1.013l-3.624-1.283
					l-3.52-1.528l3.609,1.279l3.67,1.061l3.714,0.867l3.757,0.638c5.027,0.708,10.128,0.89,15.18,0.436
					c5.059-0.374,10.061-1.389,14.906-2.906C152.325,188.935,156.996,186.842,161.403,184.253z"/>
			</g>
			<g>
				<path style="fill:#9DDCF9;" d="M123.45,220.624c-2.157,5.683-4.571,11.271-7.226,16.746c-2.723,5.44-5.601,10.809-8.754,16.017
					c-6.283,10.43-13.412,20.339-21.078,29.792c-7.675,9.449-16.015,18.351-24.528,27.012c-4.208,4.37-8.349,8.822-11.936,13.71
					c-3.648,4.835-6.63,10.194-8.565,15.962c1.718-5.839,4.634-11.292,8.168-16.249c3.529-4.977,7.627-9.51,11.776-13.953
					c8.409-8.783,16.714-17.637,24.311-27.112c7.708-9.373,14.798-19.252,21.199-29.56
					C113.215,242.675,118.787,231.852,123.45,220.624z"/>
			</g>
			<g>
				<path style="fill:#9DDCF9;" d="M107.607,222.402c-1.423,3.768-3.07,7.451-4.843,11.074c-1.805,3.608-3.818,7.11-5.949,10.539
					c-2.114,3.443-4.493,6.715-6.954,9.916c-2.463,3.202-5.093,6.276-7.859,9.222c-2.78,2.932-5.686,5.747-8.742,8.39
					c-3.038,2.666-6.19,5.174-9.29,7.729c-3.08,2.574-6.116,5.216-8.766,8.223c-2.707,2.955-4.959,6.327-6.555,10.029
					c1.386-3.788,3.579-7.261,6.185-10.35c2.603-3.104,5.607-5.833,8.639-8.489c3.035-2.658,6.204-5.145,9.187-7.826
					c3.015-2.646,5.876-5.465,8.617-8.392c5.547-5.796,10.481-12.165,14.895-18.867
					C100.587,236.894,104.371,229.776,107.607,222.402z"/>
			</g>
			<g>
				<path style="fill:#9DDCF9;" d="M91.262,217.937c-1.81,3.796-3.805,7.5-5.9,11.147c-2.093,3.649-4.347,7.203-6.641,10.729
					c-2.361,3.482-4.768,6.934-7.319,10.279c-1.285,1.666-2.582,3.32-3.9,4.958c-1.351,1.612-2.69,3.232-4.094,4.797l3.705-5.096
					c1.237-1.695,2.463-3.398,3.668-5.114c2.416-3.428,4.82-6.863,7.108-10.377c2.355-3.468,4.588-7.017,6.816-10.57
					C86.931,225.135,89.089,221.537,91.262,217.937z"/>
			</g>
		</g>
		<g>
			<rect x="45.769" y="452.839" style="fill:#9DDCF9;" width="163.406" height="6.919"/>
			<path style="fill:#9DDCF9;" d="M235.469,362.301h-96.064c-3.397,0-6.47,2.577-7.824,6.561l-30.897,90.896h108.491l30.403-89.441
				C240.865,366.532,238.696,362.301,235.469,362.301z"/>
			<path style="fill:#55A3F3;" d="M241.506,362.301H141.461c-2.67,0-5.086,2.026-6.15,5.157l-31.375,92.3h108.491l31.513-92.708
				C244.703,364.808,243.418,362.301,241.506,362.301z"/>
			<path style="fill:#0A2A6B;" d="M197.435,411.029c-1.241,7.388-8.236,13.376-15.623,13.376c-7.388,0-12.371-5.989-11.13-13.376
				c1.241-7.388,8.235-13.377,15.623-13.377C193.692,397.653,198.675,403.642,197.435,411.029z"/>
		</g>
		<g>
			<g>
				<path style="fill:#0A2A6B;" d="M235.619,262.93c1.226-1.327,2.506-2.594,3.761-3.889c0.625-0.65,1.275-1.273,1.912-1.91
					l1.929-1.891l0.453-0.444l0.358,0.518c0.972,1.407,1.324,2.951,1.412,4.529c0.057,1.569-0.167,3.139-0.652,4.605
					c-0.465,1.457-1.089,2.876-1.904,4.196c-0.864,1.307-1.799,2.503-3.206,3.488l0.177-1.073c1.03,1.349,1.786,2.752,2.481,4.223
					c0.684,1.467,1.202,3.003,1.615,4.559c0.387,1.561,0.658,3.151,0.75,4.75c0.082,1.596,0.083,3.206-0.23,4.766
					c0.045-1.583-0.1-3.154-0.365-4.697c-0.289-1.538-0.637-3.061-1.143-4.532c-0.479-1.477-1.085-2.907-1.789-4.281
					c-0.692-1.366-1.528-2.717-2.434-3.869l-0.476-0.606l0.653-0.467c1.016-0.727,1.969-1.888,2.7-3.057
					c0.742-1.196,1.344-2.491,1.79-3.846c0.445-1.341,0.714-2.729,0.708-4.119c-0.02-1.358-0.312-2.822-0.967-3.902l0.811,0.074
					l-2.057,1.751c-0.692,0.577-1.372,1.167-2.075,1.731C238.428,260.668,237.051,261.829,235.619,262.93z"/>
			</g>
			<g>
				<path style="fill:#0A2A6B;" d="M251.921,286.911c-0.516,0.597-1.352,0.882-2.155,0.898c-0.814,0.03-1.62-0.194-2.325-0.583
					c-0.696-0.387-1.285-0.914-1.747-1.512c-0.47-0.593-0.833-1.243-1.068-1.985c0.706,0.332,1.299,0.746,1.87,1.133
					c0.578,0.38,1.118,0.747,1.673,1.053c0.543,0.303,1.117,0.547,1.725,0.735C250.506,286.823,251.144,286.933,251.921,286.911z"/>
			</g>
			<g>
				<path style="fill:#0A2A6B;" d="M246.149,285.255c0.493-2.364,0.983-4.695,1.387-7.036c0.395-2.342,0.739-4.685,0.965-7.041
					c0.253-2.353,0.39-4.717,0.476-7.091c0.077-2.375,0.069-4.757,0.065-7.171c0.623,2.335,0.962,4.74,1.105,7.155
					c0.153,2.417,0.078,4.847-0.155,7.26c-0.261,2.41-0.679,4.805-1.317,7.141C248.046,280.807,247.23,283.094,246.149,285.255z"/>
			</g>
			<g>
				<path style="fill:#0A2A6B;" d="M249.02,287.126c1.386-2.113,2.658-4.25,3.764-6.464c1.096-2.217,2.056-4.492,2.814-6.834
					c0.784-2.334,1.367-4.733,1.806-7.167c0.429-2.438,0.68-4.912,0.826-7.434c0.478,2.484,0.556,5.049,0.335,7.586
					c-0.212,2.542-0.754,5.055-1.543,7.485c-0.815,2.422-1.875,4.764-3.219,6.932C252.47,283.4,250.882,285.414,249.02,287.126z"/>
			</g>
		</g>
	</g>
	<g>
		<g>
			<g>
				<path style="fill:#55A3F3;" d="M81.419,36.799h45.337c32.752,0,59.302,26.551,59.302,59.302v0
					c0,32.752-26.551,59.302-59.302,59.302H81.419c-32.752,0-59.302-26.55-59.302-59.302v0
					C22.117,63.35,48.667,36.799,81.419,36.799z"/>
				<g>
					<path style="fill:#9DDCF9;" d="M42.245,96.031c0,5.698,1.284,11.427,3.757,16.561l1.91,4.007l16.718-16.843l-0.313-1.597
						c-0.094-0.626-0.157-1.346-0.157-2.129c0-6.731,4.195-12.711,10.425-14.871l2.097-0.751V58.119l-3.694,0.689
						C55.175,62.095,42.245,77.748,42.245,96.031z"/>
					<path style="fill:#0A2A6B;" d="M68.104,106.801l-15.466,15.591l2.505,2.192c6.825,5.98,15.591,9.298,24.67,9.298
						s17.845-3.319,24.67-9.298l2.505-2.192l-15.466-15.591l-2.192,1.753c-5.416,4.289-13.618,4.289-19.034,0L68.104,106.801z"/>
					<path style="fill:#2C54AC;" d="M86.638,58.807l-3.694-0.689v22.291l2.097,0.751c6.23,2.16,10.425,8.14,10.425,14.871
						c0,0.783-0.063,1.503-0.157,2.129l-0.313,1.597l16.718,16.843l1.91-4.007c2.473-5.134,3.757-10.864,3.757-16.561
						C117.382,77.748,104.452,62.095,86.638,58.807z"/>
				</g>
				<g>
					<path style="fill:#FFFFFF;" d="M163.013,78.726H126.57c-0.812,0-1.47-0.658-1.47-1.47l0,0c0-0.812,0.658-1.47,1.47-1.47h36.444
						c0.812,0,1.47,0.658,1.47,1.47l0,0C164.483,78.067,163.825,78.726,163.013,78.726z"/>
					<path style="fill:#FFFFFF;" d="M163.013,84.974H126.57c-0.812,0-1.47-0.658-1.47-1.47l0,0c0-0.812,0.658-1.47,1.47-1.47h36.444
						c0.812,0,1.47,0.658,1.47,1.47l0,0C164.483,84.316,163.825,84.974,163.013,84.974z"/>
					<path style="fill:#FFFFFF;" d="M163.013,91.222H126.57c-0.812,0-1.47-0.658-1.47-1.47l0,0c0-0.812,0.658-1.47,1.47-1.47h36.444
						c0.812,0,1.47,0.658,1.47,1.47l0,0C164.483,90.564,163.825,91.222,163.013,91.222z"/>
					<path style="fill:#FFFFFF;" d="M163.013,97.47H126.57c-0.812,0-1.47-0.658-1.47-1.47l0,0c0-0.812,0.658-1.47,1.47-1.47h36.444
						c0.812,0,1.47,0.658,1.47,1.47l0,0C164.483,96.812,163.825,97.47,163.013,97.47z"/>
					<path style="fill:#FFFFFF;" d="M163.013,103.718H126.57c-0.812,0-1.47-0.658-1.47-1.47l0,0c0-0.812,0.658-1.47,1.47-1.47
						h36.444c0.812,0,1.47,0.658,1.47,1.47l0,0C164.483,103.06,163.825,103.718,163.013,103.718z"/>
					<path style="fill:#FFFFFF;" d="M163.013,109.966H126.57c-0.812,0-1.47-0.658-1.47-1.47l0,0c0-0.812,0.658-1.47,1.47-1.47
						h36.444c0.812,0,1.47,0.658,1.47,1.47l0,0C164.483,109.308,163.825,109.966,163.013,109.966z"/>
					<path style="fill:#FFFFFF;" d="M163.013,116.215H126.57c-0.812,0-1.47-0.658-1.47-1.47l0,0c0-0.812,0.658-1.47,1.47-1.47
						h36.444c0.812,0,1.47,0.658,1.47,1.47l0,0C164.483,115.557,163.825,116.215,163.013,116.215z"/>
				</g>
			</g>
			<polygon style="fill:#55A3F3;" points="77.335,151.055 77.335,172.055 99.249,150.141 			"/>
		</g>
		<g>
			<g>
				<path style="fill:#0A2A6B;" d="M226.802,124.649h30.395c21.958,0,39.758,17.8,39.758,39.758l0,0
					c0,21.958-17.8,39.758-39.758,39.758h-30.395c-21.958,0-39.758-17.8-39.758-39.758l0,0
					C187.044,142.449,204.844,124.649,226.802,124.649z"/>
				<g transform="translate(0,-952.3622)">
					<path style="fill:#55A3F3;" d="M237.687,1086.336l-2.124,7.392c-1.947,0.529-3.8,1.283-5.518,2.248l-6.809-3.739l-6.087,6.009
						l3.788,6.722c-0.977,1.695-1.741,3.525-2.277,5.447l-7.488,2.097v8.516l7.488,2.097c0.536,1.922,1.3,3.751,2.277,5.447
						l-3.788,6.722l6.087,6.009l6.809-3.739c1.717,0.965,3.571,1.718,5.518,2.248l2.124,7.392h8.627l2.124-7.392
						c1.947-0.53,3.8-1.283,5.518-2.248l6.81,3.739l6.087-6.009l-3.788-6.722c0.977-1.695,1.741-3.525,2.277-5.447l7.488-2.097
						v-8.516l-7.488-2.097c-0.536-1.922-1.3-3.751-2.277-5.447l3.788-6.722l-6.087-6.009l-6.81,3.739
						c-1.717-0.965-3.571-1.719-5.518-2.248l-2.124-7.392H237.687z M242,1100.866c8.871,0,16.11,7.146,16.11,15.904
						s-7.239,15.904-16.11,15.904c-8.871,0-16.11-7.146-16.11-15.904S233.129,1100.866,242,1100.866z"/>
				</g>
			</g>
			<polygon style="fill:#0A2A6B;" points="217.493,199.948 217.493,220.948 239.407,199.035 			"/>
		</g>
		<g>
			<g>
				<path style="fill:#2C54AC;" d="M331.81,18.08h92.435c32.296,0,58.477,26.181,58.477,58.477v0
					c0,32.296-26.181,58.477-58.477,58.477H331.81c-32.296,0-58.477-26.181-58.477-58.477v0
					C273.333,44.261,299.514,18.08,331.81,18.08z"/>
				<path style="fill:#9DDCF9;" d="M305.321,42.166L305.321,42.166c2.328,0,4.216,1.888,4.216,4.216v63.86
					c0,2.328-1.887,4.216-4.216,4.216l0,0c-2.328,0-4.216-1.888-4.216-4.216v-63.86C301.105,44.054,302.992,42.166,305.321,42.166z"
					/>
				<path style="fill:#0A2A6B;" d="M321.324,63.951L321.324,63.951c2.328,0,4.216,1.888,4.216,4.216v42.076
					c0,2.328-1.887,4.216-4.216,4.216l0,0c-2.328,0-4.216-1.888-4.216-4.216V68.167C317.108,65.838,318.995,63.951,321.324,63.951z"
					/>
				<path style="fill:#9DDCF9;" d="M337.326,90.762L337.326,90.762c2.328,0,4.216,1.887,4.216,4.216v15.265
					c0,2.328-1.888,4.216-4.216,4.216l0,0c-2.328,0-4.216-1.888-4.216-4.216V94.978C333.11,92.649,334.998,90.762,337.326,90.762z"
					/>
				<path style="fill:#55A3F3;" d="M353.329,53.562L353.329,53.562c2.328,0,4.216,1.888,4.216,4.216v52.464
					c0,2.328-1.888,4.216-4.216,4.216l0,0c-2.328,0-4.216-1.888-4.216-4.216V57.778C349.113,55.449,351.001,53.562,353.329,53.562z"
					/>
				<path style="fill:#9DDCF9;" d="M369.332,42.166L369.332,42.166c2.328,0,4.216,1.888,4.216,4.216v63.86
					c0,2.328-1.887,4.216-4.216,4.216l0,0c-2.328,0-4.216-1.888-4.216-4.216v-63.86C365.116,44.054,367.004,42.166,369.332,42.166z"
					/>
				<path style="fill:#FF8775;" d="M385.335,32.726L385.335,32.726c2.328,0,4.216,1.888,4.216,4.216v73.3
					c0,2.328-1.888,4.216-4.216,4.216l0,0c-2.328,0-4.216-1.888-4.216-4.216v-73.3C381.119,34.614,383.006,32.726,385.335,32.726z"
					/>
				<path style="fill:#55A3F3;" d="M401.338,63.951L401.338,63.951c2.328,0,4.216,1.888,4.216,4.216v42.076
					c0,2.328-1.888,4.216-4.216,4.216l0,0c-2.328,0-4.216-1.888-4.216-4.216V68.167C397.122,65.838,399.009,63.951,401.338,63.951z"
					/>
				<path style="fill:#FF8775;" d="M432.429,53.51c0,2.965-2.404,5.369-5.369,5.369c-2.965,0-5.369-2.404-5.369-5.369
					s2.404-5.369,5.369-5.369C430.025,48.141,432.429,50.545,432.429,53.51z"/>
				<path style="fill:#FFFFFF;" d="M465.49,55.032h-26.444c-0.812,0-1.47-0.658-1.47-1.47l0,0c0-0.812,0.658-1.47,1.47-1.47h26.444
					c0.812,0,1.47,0.658,1.47,1.47l0,0C466.96,54.374,466.302,55.032,465.49,55.032z"/>
				<path style="fill:#9DDCF9;" d="M432.429,68.224c0,2.965-2.404,5.369-5.369,5.369c-2.965,0-5.369-2.404-5.369-5.369
					c0-2.965,2.404-5.369,5.369-5.369C430.025,62.855,432.429,65.258,432.429,68.224z"/>
				<path style="fill:#FFFFFF;" d="M465.49,69.745h-26.444c-0.812,0-1.47-0.658-1.47-1.47l0,0c0-0.812,0.658-1.47,1.47-1.47h26.444
					c0.812,0,1.47,0.658,1.47,1.47l0,0C466.96,69.087,466.302,69.745,465.49,69.745z"/>
				<path style="fill:#55A3F3;" d="M432.429,82.937c0,2.965-2.404,5.369-5.369,5.369c-2.965,0-5.369-2.404-5.369-5.369
					c0-2.965,2.404-5.369,5.369-5.369C430.025,77.568,432.429,79.972,432.429,82.937z"/>
				<path style="fill:#FFFFFF;" d="M465.49,84.459h-26.444c-0.812,0-1.47-0.658-1.47-1.47l0,0c0-0.812,0.658-1.47,1.47-1.47h26.444
					c0.812,0,1.47,0.658,1.47,1.47l0,0C466.96,83.8,466.302,84.459,465.49,84.459z"/>
				<path style="fill:#0A2A6B;" d="M432.429,97.65c0,2.965-2.404,5.369-5.369,5.369c-2.965,0-5.369-2.404-5.369-5.369
					c0-2.965,2.404-5.369,5.369-5.369C430.025,92.281,432.429,94.685,432.429,97.65z"/>
				<path style="fill:#FFFFFF;" d="M465.49,99.172h-26.444c-0.812,0-1.47-0.658-1.47-1.47l0,0c0-0.812,0.658-1.47,1.47-1.47h26.444
					c0.812,0,1.47,0.658,1.47,1.47l0,0C466.96,98.514,466.302,99.172,465.49,99.172z"/>
			</g>
			<polygon style="fill:#2C54AC;" points="394.129,133.992 394.129,154.992 372.215,133.077 			"/>
		</g>
	</g>
</g>
</svg>
